<svg width="16" height="17" viewBox="0 0 16 17" fill="none" xmlns="http://www.w3.org/2000/svg">
<path d="M13.5139 0.800049H2.4876C1.55781 0.800049 0.800781 1.53605 0.800781 2.448V13.264C0.800781 14.176 1.55781 14.912 2.4876 14.912H11.8188L11.3827 13.432L12.436 14.384L13.4316 15.28L15.2008 16.8V2.448C15.2008 1.53605 14.4438 0.800049 13.5139 0.800049ZM10.3377 11.248C10.3377 11.248 10.0415 10.904 9.7946 10.6C10.8726 10.304 11.284 9.648 11.284 9.648C10.9466 9.864 10.6257 10.016 10.3377 10.12C9.9263 10.288 9.5313 10.4 9.1446 10.464C8.3546 10.608 7.6305 10.568 7.0134 10.456C6.5443 10.368 6.1411 10.24 5.8038 10.112C5.6145 10.04 5.4088 9.952 5.2031 9.84C5.1784 9.824 5.1537 9.816 5.129 9.8C5.1126 9.792 5.1043 9.784 5.0961 9.776C4.948 9.696 4.8657 9.64 4.8657 9.64C4.8657 9.64 5.2607 10.28 6.3057 10.584C6.0588 10.888 5.7544 11.248 5.7544 11.248C3.9359 11.192 3.2447 10.032 3.2447 10.032C3.2447 7.456 4.4296 5.368 4.4296 5.368C5.6145 4.504 6.7418 4.528 6.7418 4.528L6.8241 4.624C5.343 5.04 4.66 5.672 4.66 5.672C4.66 5.672 4.841 5.576 5.1455 5.44C6.0259 5.064 6.7254 4.96 7.0134 4.936C7.0627 4.928 7.1039 4.92 7.1532 4.92C7.6552 4.856 8.223 4.84 8.8154 4.904C9.5971 4.992 10.4364 5.216 11.2922 5.672C11.2922 5.672 10.6422 5.072 9.2433 4.656L9.3585 4.528C9.3585 4.528 10.4858 4.504 11.6707 5.368C11.6707 5.368 12.8556 7.456 12.8556 10.032C12.8556 10.032 12.1562 11.192 10.3377 11.248ZM6.5114 7.512C6.0424 7.512 5.6721 7.912 5.6721 8.4C5.6721 8.888 6.0506 9.288 6.5114 9.288C6.9804 9.288 7.3507 8.888 7.3507 8.4C7.359 7.912 6.9804 7.512 6.5114 7.512ZM9.5148 7.512C9.0458 7.512 8.6755 7.912 8.6755 8.4C8.6755 8.888 9.054 9.288 9.5148 9.288C9.9839 9.288 10.3542 8.888 10.3542 8.4C10.3542 7.912 9.9839 7.512 9.5148 7.512Z" fill="white"/>
</svg>
