<svg width="17" height="16" viewBox="0 0 17 16" fill="none" xmlns="http://www.w3.org/2000/svg">
<path fill-rule="evenodd" clip-rule="evenodd" d="M8.99985 4.13595e-06C7.09875 -0.00192809 5.2591 0.673218 3.81057 1.90445C2.36204 3.13569 1.39932 4.84253 1.09493 6.7191C0.790537 8.59568 1.16438 10.5193 2.14945 12.1453C3.13453 13.7713 4.66645 14.9933 6.47069 15.5924C6.87339 15.6661 7.01581 15.4156 7.01581 15.2044C7.01581 14.9932 7.01581 14.512 7.01581 13.8441C4.78131 14.3303 4.30985 12.7686 4.30985 12.7686C4.16162 12.2846 3.84669 11.8687 3.42097 11.5948C2.69905 11.1037 3.4799 11.1037 3.4799 11.1037C3.73296 11.1395 3.97457 11.2324 4.18643 11.3753C4.39829 11.5182 4.57485 11.7075 4.70273 11.9288C4.81139 12.1258 4.95789 12.2995 5.13382 12.4397C5.30975 12.58 5.51164 12.6841 5.72792 12.7462C5.9442 12.8083 6.1706 12.827 6.39414 12.8013C6.61768 12.7757 6.83395 12.7061 7.03054 12.5967C7.06136 12.1927 7.23553 11.813 7.52164 11.5261C5.74386 11.3247 3.87769 10.6372 3.87769 7.5973C3.86548 6.80319 4.15913 6.03479 4.69782 5.4512C4.4579 4.76073 4.48594 4.00535 4.7764 3.33457C4.7764 3.33457 5.4492 3.11848 6.97652 4.1547C8.28804 3.79461 9.67237 3.79461 10.9839 4.1547C12.5112 3.11848 13.1791 3.33457 13.1791 3.33457C13.4736 3.99825 13.5086 4.74821 13.2773 5.43647C13.816 6.02006 14.1097 6.78845 14.0975 7.58257C14.0975 10.6568 12.2264 11.3297 10.4437 11.5114C10.6348 11.7035 10.7824 11.9345 10.8765 12.1887C10.9705 12.4429 11.0088 12.7144 10.9888 12.9847C10.9888 14.0553 10.9888 14.9196 10.9888 15.1799C10.9888 15.4402 11.1312 15.6415 11.5388 15.5629C13.3225 14.948 14.8315 13.7225 15.7992 12.1029C16.7669 10.4832 17.131 8.57369 16.8272 6.7116C16.5234 4.84951 15.5713 3.15471 14.139 1.9266C12.7067 0.698488 10.8865 0.0161069 8.99985 4.13595e-06Z" fill="white"/>
</svg>
