<svg width="16" height="10" viewBox="0 0 16 10" fill="none" xmlns="http://www.w3.org/2000/svg">
<path d="M4.51256 0C7.00478 0 9.02496 2.03428 9.02496 4.54353C9.02496 7.05277 7.00463 9.0869 4.51256 9.0869C2.02049 9.0869 0 7.05277 0 4.54353C0 2.03428 2.02033 0 4.51256 0ZM11.7188 0.266148C12.9649 0.266148 13.9751 2.181 13.9751 4.54353H13.9752C13.9752 6.90544 12.9651 8.8209 11.7189 8.8209C10.4728 8.8209 9.46266 6.90544 9.46266 4.54353C9.46266 2.18162 10.4727 0.266148 11.7188 0.266148ZM15.2065 0.71167C15.6446 0.71167 16 2.42722 16 4.54353C16 6.65922 15.6448 8.37538 15.2065 8.37538C14.7681 8.37538 14.4131 6.65968 14.4131 4.54353C14.4131 2.42737 14.7683 0.71167 15.2065 0.71167Z" fill="white"/>
</svg>
