<svg width="16" height="16" viewBox="0 0 16 16" fill="none" xmlns="http://www.w3.org/2000/svg">
<path fill-rule="evenodd" clip-rule="evenodd" d="M16 8C16 12.4183 12.4183 16 8 16C3.58172 16 0 12.4183 0 8C0 3.58172 3.58172 0 8 0C12.4183 0 16 3.58172 16 8ZM13.2953 8.32488C13.3241 8.21908 13.3377 8.10968 13.3361 8.00008C13.3279 7.77486 13.2547 7.55682 13.1253 7.37228C12.996 7.18776 12.816 7.0446 12.6071 6.96008C12.3983 6.87552 12.1694 6.85322 11.9481 6.89588C11.7269 6.93839 11.5226 7.04404 11.3601 7.20008C11.1341 7.04643 10.8973 6.90928 10.6515 6.78968C10.1595 6.54993 9.63541 6.38247 9.09552 6.29248C8.82592 6.24748 8.55332 6.22188 8.28012 6.21608L8.80012 3.72008L10.5121 4.08008C10.5541 4.47088 10.8739 4.77328 11.2665 4.79348C11.6589 4.81368 12.0081 4.54568 12.0899 4.16128C12.1719 3.77688 11.9623 3.38988 11.5957 3.24828C11.2291 3.10668 10.8139 3.25228 10.6161 3.59208L8.65612 3.20008C8.62412 3.19308 8.59092 3.19248 8.55872 3.19828C8.52632 3.20428 8.49552 3.21648 8.46792 3.23428C8.44052 3.25208 8.41672 3.27528 8.39832 3.30228C8.37972 3.32948 8.36672 3.35988 8.36012 3.39208L7.76812 6.16808C7.49152 6.17228 7.21552 6.19648 6.94252 6.24068C6.66952 6.28488 6.39992 6.34868 6.13612 6.43188C5.87232 6.51508 5.61492 6.61748 5.36592 6.73788C5.11698 6.85846 4.87709 6.99689 4.64812 7.15208C4.52478 7.03605 4.37769 6.94823 4.21703 6.8947C4.05638 6.84117 3.886 6.82322 3.71772 6.84208C3.54946 6.86086 3.3873 6.91602 3.24249 7.00375C3.09768 7.09147 2.97369 7.20965 2.87912 7.35008C2.78447 7.49054 2.72149 7.6499 2.69456 7.81711C2.66762 7.98433 2.67737 8.15541 2.72312 8.31848C2.76895 8.48149 2.84965 8.63258 2.95964 8.76132C3.06962 8.89006 3.20627 8.99336 3.36012 9.06408C3.35792 9.09328 3.35612 9.12268 3.35512 9.15208C3.35271 9.21072 3.35271 9.26944 3.35512 9.32808C3.35612 9.35748 3.35792 9.38688 3.36012 9.41608C3.36012 11.2081 5.44812 12.6641 8.02412 12.6641C10.6001 12.6641 12.6881 11.2081 12.6881 9.41608C12.6903 9.38688 12.6921 9.35748 12.6931 9.32808C12.6955 9.26944 12.6955 9.21072 12.6931 9.15208C12.6921 9.12268 12.6903 9.09328 12.6881 9.06408C12.7863 9.01528 12.8771 8.95288 12.9579 8.87868C13.0387 8.80448 13.1087 8.71928 13.1657 8.62568C13.2229 8.53208 13.2665 8.43068 13.2953 8.32488ZM5.57052 9.36568C5.49612 9.29148 5.43732 9.20328 5.39692 9.10628C5.35672 9.00908 5.33612 8.90508 5.33612 8.80008C5.33612 8.47648 5.53112 8.18488 5.82992 8.06088C6.12892 7.93708 6.47292 8.00568 6.70172 8.23448C6.93052 8.46328 6.99912 8.80728 6.87532 9.10628C6.75132 9.40508 6.45972 9.60008 6.13612 9.60008C6.03105 9.60009 5.92701 9.57944 5.82992 9.53928C5.73292 9.49888 5.64472 9.44008 5.57052 9.36568ZM10.0441 10.8749C10.0433 10.9321 10.0199 10.9867 9.97892 11.0267L9.98412 11.0001C9.84352 11.1061 9.69412 11.1997 9.53752 11.2801C9.22363 11.4409 8.88443 11.5467 8.53472 11.5927C8.36012 11.6155 8.18392 11.6233 8.00812 11.6161C7.83232 11.6233 7.65612 11.6155 7.48152 11.5927C7.30692 11.5697 7.13472 11.5319 6.96672 11.4795C6.79872 11.4271 6.63532 11.3605 6.47872 11.2801C6.32212 11.1997 6.17272 11.1061 6.03212 11.0001C5.99812 10.9587 5.98072 10.9061 5.98332 10.8525C5.98592 10.7989 6.00852 10.7483 6.04632 10.7103C6.08432 10.6725 6.13492 10.6499 6.18852 10.6473C6.24212 10.6447 6.29472 10.6621 6.33612 10.6961C6.45532 10.7835 6.58172 10.8607 6.71392 10.9267C6.84612 10.9927 6.98352 11.0475 7.12512 11.0903C7.26649 11.1333 7.41129 11.1641 7.55792 11.1823C7.70452 11.2007 7.85252 11.2067 8.00012 11.2001C8.14792 11.2081 8.29612 11.2037 8.44332 11.1867C8.59032 11.1697 8.73572 11.1403 8.87772 11.0989C9.01984 11.0574 9.1582 11.0039 9.29132 10.9391C9.42444 10.8743 9.55183 10.7984 9.67212 10.7121C9.71832 10.6775 9.77352 10.6553 9.83092 10.6561C9.88812 10.6569 9.94272 10.6803 9.98272 10.7213C10.0227 10.7623 10.0449 10.8175 10.0441 10.8749ZM10.1483 9.60268C10.0481 9.64428 9.94052 9.66528 9.83212 9.66408L9.84012 9.63208C9.51652 9.63208 9.22492 9.43708 9.10092 9.13828C8.97712 8.83928 9.04572 8.49528 9.27452 8.26648C9.50332 8.03768 9.84732 7.96908 10.1463 8.09288C10.4451 8.21688 10.6401 8.50848 10.6401 8.83208C10.6445 8.94046 10.6268 9.0486 10.5879 9.14988C10.5491 9.25128 10.4903 9.34368 10.4147 9.42148C10.3391 9.49928 10.2485 9.56088 10.1483 9.60268Z" fill="white"/>
</svg>
