<svg width="17" height="13" viewBox="0 0 17 13" fill="none" xmlns="http://www.w3.org/2000/svg">
<path d="M16.4808 1.9199C15.9208 2.1599 15.2808 2.3199 14.6408 2.3999C15.2808 1.9999 15.8408 1.3599 16.0808 0.639902C15.4408 1.0399 14.8008 1.2799 14.0008 1.4399C13.4408 0.799902 12.5608 0.399902 11.6808 0.399902C9.9208 0.399902 8.4808 1.8399 8.4808 3.5999C8.4808 3.8399 8.4808 4.0799 8.5608 4.3199C5.9208 4.1599 3.5208 2.8799 1.92078 0.959902C1.68078 1.4399 1.52078 1.9999 1.52078 2.5599C1.52078 3.6799 2.0808 4.6399 2.9608 5.1999C2.4008 5.1999 1.92078 5.0399 1.52078 4.7999C1.52078 6.3199 2.6408 7.6799 4.0808 7.9199C3.8408 7.9999 3.5208 7.9999 3.2008 7.9999C2.9608 7.9999 2.8008 7.9999 2.5608 7.9199C2.9608 9.1999 4.1608 10.1599 5.6008 10.1599C4.4808 11.0399 3.1208 11.5199 1.60078 11.5199C1.36078 11.5199 1.12078 11.5199 0.800781 11.4399C2.2408 12.3199 3.9208 12.8799 5.7608 12.8799C11.6808 12.8799 14.8808 7.9999 14.8808 3.7599V3.3599C15.5208 3.1199 16.0808 2.5599 16.4808 1.9199Z" fill="white"/>
</svg>
